<?xml version="1.0" encoding="UTF-8"?><svg id="_レイヤー_1" xmlns="http://www.w3.org/2000/svg" viewBox="0 0 364.4 41.47"><defs><style>.cls-1{fill:#231815;}</style></defs><path class="cls-1" d="m30.69,39.64h-9.32v-15.57h-12.06v15.57H0V1.93h9.32v13.77h12.06V1.93h9.32v37.71Z"/><path class="cls-1" d="m70.65,39.64h-10.26l-4.59-10.3c-1.02-2.28-3.09-3.42-6.21-3.42h-2.56v13.72h-9.32V1.93h18.05c3.45,0,6.31.89,8.59,2.66,2.67,2.07,4,5.06,4,8.96,0,4.74-2.23,8.1-6.7,10.08,1.65.93,2.95,2.48,3.92,4.64l5.08,11.38Zm-23.62-21.55h7.6c1.5,0,2.61-.51,3.33-1.53.54-.72.81-1.57.81-2.56s-.27-1.77-.81-2.43c-.72-.9-1.83-1.35-3.33-1.35h-7.6v7.88Z"/><path class="cls-1" d="m103.95,27.89c0,4.44-1.67,7.73-5,9.85-2.52,1.59-5.57,2.38-9.14,2.38-4.23,0-7.51-.6-9.85-1.8-3.3-1.71-5.71-4.83-7.25-9.36l9-2.74c.9,2.43,2.13,4.08,3.69,4.95,1.05.57,2.52.85,4.41.85,1.29,0,2.32-.31,3.08-.94.77-.63,1.15-1.47,1.15-2.52,0-1.11-.75-2.01-2.25-2.7-.9-.42-2.67-.93-5.31-1.53-4.38-1.02-7.38-2.08-9-3.19-2.67-1.83-4-4.68-4-8.55,0-3.33,1.35-6.02,4.05-8.08,2.7-2.05,6.19-3.08,10.48-3.08,7.86,0,13.15,3.08,15.88,9.22l-8.59,3.06c-.99-1.77-2.18-2.95-3.56-3.55-.99-.42-2.37-.63-4.14-.63-1.53,0-2.74.35-3.65,1.04-.72.6-1.08,1.26-1.08,1.98,0,.87.52,1.58,1.57,2.12.66.3,1.98.71,3.96,1.21,4.35,1.08,6.62,1.65,6.79,1.71,2.7.87,4.73,2,6.08,3.38,1.77,1.74,2.66,4.05,2.66,6.93Z"/><path class="cls-1" d="m139.99,13l-8.69,3.01c-.63-2.37-1.5-4.06-2.61-5.08-1.02-.93-2.43-1.4-4.23-1.4-5.04,0-7.56,3.75-7.56,11.25,0,3.93.79,6.86,2.38,8.78,1.38,1.65,3.25,2.47,5.62,2.47,2.52,0,4.69-.39,6.52-1.17v-4.9h-6.88v-7.2h15.66v18.45c-4.92,1.95-10.1,2.92-15.52,2.92s-9.79-1.69-12.8-5.06c-3.02-3.38-4.52-8.14-4.52-14.29s1.45-10.53,4.36-13.95c3.06-3.6,7.3-5.4,12.73-5.4,4.38,0,7.83,1.01,10.35,3.01,2.34,1.86,4.06,4.71,5.18,8.55Z"/><path class="cls-1" d="m179.73,39.64h-10.26l-4.59-10.3c-1.02-2.28-3.09-3.42-6.21-3.42h-2.56v13.72h-9.32V1.93h18.05c3.45,0,6.31.89,8.59,2.66,2.67,2.07,4,5.06,4,8.96,0,4.74-2.23,8.1-6.7,10.08,1.65.93,2.95,2.48,3.92,4.64l5.08,11.38Zm-23.62-21.55h7.6c1.5,0,2.61-.51,3.33-1.53.54-.72.81-1.57.81-2.56s-.27-1.77-.81-2.43c-.72-.9-1.83-1.35-3.33-1.35h-7.6v7.88Z"/><path class="cls-1" d="m189.43,28.61c-1.04,1.81-2.18,3.6-3.43,5.38l-2.8-9.21c2.49-3.47,4.55-6.87,6.19-10.19h-5.03v-7.65h4.98V.53h7.83v6.41h3.87v1.69c.56-2.17,1.01-4.73,1.33-7.7l6.32.85c0,.09-.09.96-.27,2.63h1.33V.4h7.25v4h7.61v7.7h-7.61v2.14h8.5v7.7h-6.28c2.14,4.21,4.69,7.95,7.65,11.21l-5.07,6.14c-1.9-2.43-3.56-5.01-4.98-7.74v9.92h-7.43v-9.92c-1.42,2.73-3.09,5.31-4.98,7.74l-5.07-6.14c2.96-3.26,5.52-7,7.65-11.21h-4.94l-2.58,8.41c-.74-.89-1.54-1.99-2.4-3.29v14.11h-7.65v-12.55Zm11.62-14.02h-3.96v.4c1.16,1.87,2.49,3.74,4,5.61v-6.36h4.18l-4.23-1.91v2.27Zm5.78-.36h2.76v-2.14h-2.27c-.18.8-.34,1.51-.49,2.14Z"/><path class="cls-1" d="m253.78,37.38c-7.54,1.63-14.52,2.7-20.96,3.2l-2.22-8.37c2.49-.18,5.07-.42,7.74-.71v-6.27h-5.56v-7.65h19.62v7.65h-5.52v5.16c2.08-.33,4.38-.77,6.9-1.33v8.32Zm17.67-21.76h-10.1c.27,4.54.71,8.32,1.33,11.35.68,3.32,1.44,4.98,2.27,4.98.33,0,.93-.61,1.8-1.82.88-1.22,1.67-2.6,2.38-4.14l3.78,8.86c-1.36,2.14-2.69,3.69-3.96,4.67-1.48,1.16-3.15,1.74-4.98,1.74-3.62,0-6.3-2.25-8.05-6.76-1.48-3.83-2.52-10.12-3.12-18.87h-21.72V7.43h21.27l-.31-6.81h8.68c0,2.28.04,4.55.13,6.81h3.92c-1.1-1.19-2.25-2.25-3.47-3.2l4.94-4.23c1.66,1.25,3.34,2.85,5.03,4.81l-3.07,2.63h3.25v8.19Z"/><path class="cls-1" d="m309.04,18.29h-23.14v-2.09c-1.51.95-3.16,1.85-4.94,2.71l-5.7-6.59c7.12-3.06,12.86-6.99,17.22-11.79h9.3c4.63,4.63,10.59,8.35,17.89,11.17l-5.74,6.94c-1.63-.71-3.26-1.54-4.89-2.49v2.14Zm-1.78,20.56c-7.42,1.13-16.44,1.94-27.06,2.45l-2.23-8.01c1.42,0,3.54-.03,6.36-.09,1.25-1.9,2.42-3.81,3.52-5.74h-9.97v-7.61h39.16v7.61h-9.39c3.53,3.11,6.84,6.54,9.92,10.28l-8.28,3.69c-.53-.71-1.22-1.57-2.05-2.58Zm-14.37-27.68h8.81c-1.63-1.28-3.12-2.58-4.45-3.92-1.33,1.33-2.79,2.64-4.36,3.92Zm1.34,21.63c1.6-.09,4.03-.24,7.3-.44-1.13-1.19-2.03-2.09-2.71-2.71l5.56-2.18h-6.9c-.65,1.16-1.74,2.94-3.25,5.34Z"/><path class="cls-1" d="m337.43,41.21h-8.46v-11.3c-1.22,1.13-2.49,2.23-3.83,3.29l-3.2-7.97c4.81-4.12,8.26-7.92,10.37-11.39h-8.37v-7.43h5.03V.58h8.46v5.83h4.32v6.76c-.98,1.93-2.05,3.77-3.2,5.52,1.84,1.87,4.03,3.8,6.59,5.79l-4.23,6.81c-1.25-1.1-2.4-2.2-3.47-3.29v13.22Zm26.97-.67h-23.14v-8.68h7.43v-11.93h-6.32v-8.5h6.32V1.07h8.86v10.37h6.23v8.5h-6.23v11.93h6.85v8.68Z"/></svg>